<svg width="87" height="107" viewBox="0 0 87 107" fill="none" xmlns="http://www.w3.org/2000/svg">
<path d="M86.6718 78.9984C70.1072 67.8012 66.888 51.1016 83.7704 36.2856C78.4064 29.0946 71.7896 25.3254 64.912 25.3253C58.0344 25.3253 48.0751 31.1278 43.7974 31.1278C40.0271 31.1278 25.4311 22.5564 14.1406 29.1937C-9.26613 42.9537 0.186861 99.9932 27.3473 106.331C34.8747 108.087 37.7286 102.706 45.5702 102.37C53.4118 102.033 57.5683 107.822 65.2742 106.331C76.5891 104.141 81.4094 92.6 86.6718 78.9984Z" fill="black"/>
<path d="M43.2973 24.4852C43.2973 11.7822 52.1637 0.613892 64.4404 0.613892C64.4404 15.4482 55.3182 24.4852 43.2973 24.4852Z" fill="black"/>
</svg>
