<svg width="22" height="23" viewBox="0 0 22 23" fill="none" xmlns="http://www.w3.org/2000/svg">
<path d="M3.04498 9.34392C1.93254 9.34392 1.0354 8.4468 1.0354 7.33436V3.31523C1.0354 2.20279 1.93254 1.30566 3.04498 1.30566H7.06411C8.17655 1.30566 9.07369 2.20279 9.07369 3.31523V7.33436C9.07369 8.4468 8.17655 9.34392 7.06411 9.34392H3.04498Z" stroke="white" stroke-width="1.5" stroke-linecap="round" stroke-linejoin="round"/>
<path d="M15.0067 9.34392C13.8943 9.34392 12.9971 8.4468 12.9971 7.33436V3.31523C12.9971 2.20279 13.8943 1.30566 15.0067 1.30566H19.0259C20.1383 1.30566 21.0354 2.20279 21.0354 3.31523V7.33436C21.0354 8.4468 20.1383 9.34392 19.0259 9.34392H15.0067Z" stroke="white" stroke-width="1.5" stroke-linecap="round" stroke-linejoin="round"/>
<path d="M3.04498 21.3057C1.93254 21.3057 1.0354 20.4085 1.0354 19.2961V15.277C1.0354 14.1645 1.93254 13.2674 3.04498 13.2674H7.06411C8.17655 13.2674 9.07369 14.1645 9.07369 15.277V19.2961C9.07369 20.4085 8.17655 21.3057 7.06411 21.3057H3.04498Z" stroke="white" stroke-width="1.5" stroke-linecap="round" stroke-linejoin="round"/>
<path d="M15.0067 21.3057C13.8943 21.3057 12.9971 20.4085 12.9971 19.2961V15.277C12.9971 14.1645 13.8943 13.2674 15.0067 13.2674H19.0259C20.1383 13.2674 21.0354 14.1645 21.0354 15.277V19.2961C21.0354 20.4085 20.1383 21.3057 19.0259 21.3057H15.0067Z" stroke="white" stroke-width="1.5" stroke-linecap="round" stroke-linejoin="round"/>
</svg>
