<svg width="109" height="109" viewBox="0 0 109 109" fill="none" xmlns="http://www.w3.org/2000/svg">
<path d="M108.66 54.5C108.66 51.0395 108.335 47.6551 107.713 44.3755H85.7147H54.6367V64.689H85.6937C83.4464 71.5434 78.9934 77.3983 73.1738 81.4144L90.2077 95.161C101.518 85.2587 108.66 70.7135 108.66 54.5Z" fill="#4285F4"/>
<path d="M54.6367 87.1777C40.1473 87.1777 27.8602 77.7471 23.5788 64.689L6.52626 79.0998C15.4761 96.5682 33.6603 108.523 54.6367 108.523C68.2596 108.523 80.7047 103.481 90.2077 95.161L73.1738 81.4144C67.9067 85.0491 61.5203 87.1777 54.6367 87.1777Z" fill="#34A853"/>
<path d="M21.959 54.5C21.959 50.9661 22.52 47.5632 23.5578 44.3755L6.52626 29.9003C2.74609 37.2785 0.613301 45.6402 0.613281 54.5C0.613281 63.3599 2.74608 71.7216 6.52626 79.0998L23.5788 64.689C22.5276 61.4828 21.959 58.0578 21.959 54.5Z" fill="#FBBC05"/>
<path d="M54.6367 21.8232C62.8738 21.8233 70.3989 24.871 76.1461 29.9003L91.1652 14.6976C81.5483 5.86705 68.722 0.476562 54.6367 0.476562C33.6603 0.476562 15.4761 12.4318 6.52626 29.9003L23.5578 44.3755C27.8199 31.2844 40.1235 21.8232 54.6367 21.8232Z" fill="#EB4335"/>
</svg>
