<svg width="20" height="15" viewBox="0 0 20 15" fill="none" xmlns="http://www.w3.org/2000/svg">
<path d="M10.2364 4.87598C11.5231 4.87621 12.5665 5.91937 12.5665 7.20605C12.5662 8.49248 11.5229 9.5359 10.2364 9.53613C8.94981 9.53613 7.90667 8.49262 7.90637 7.20605C7.90637 5.91923 8.94963 4.87598 10.2364 4.87598Z" fill="#3D0065"/>
<path fill-rule="evenodd" clip-rule="evenodd" d="M10.2364 0.265625C13.5063 0.265728 16.4257 1.7959 18.4357 4.21582C19.8356 5.90582 19.8357 8.50532 18.4357 10.1953C16.4357 12.6051 13.5062 14.1454 10.2364 14.1455C6.96646 14.1455 4.04625 12.6153 2.03625 10.1953C0.636302 8.50538 0.636407 5.90583 2.03625 4.21582C4.03625 1.80582 6.96644 0.265625 10.2364 0.265625ZM10.2364 3.37598C8.12119 3.37598 6.40637 5.09081 6.40637 7.20605C6.40667 9.32104 8.12138 11.0361 10.2364 11.0361C12.3513 11.0359 14.0662 9.3209 14.0665 7.20605C14.0665 5.09095 12.3515 3.37621 10.2364 3.37598Z" fill="#3D0065"/>
</svg>
