<svg width="19" height="21" viewBox="0 0 19 21" fill="none" xmlns="http://www.w3.org/2000/svg">
<path d="M17.3937 19.3621C17.4545 18.4718 17.3973 17.5773 17.2236 16.702C17.0319 16.072 16.688 15.499 16.2224 15.0333C15.7568 14.5677 15.1837 14.2238 14.5537 14.0321C13.6784 13.8584 12.7839 13.8012 11.8937 13.8621H6.89366C6.00338 13.8012 5.10893 13.8584 4.23363 14.0321C3.60364 14.2238 3.03058 14.5677 2.56493 15.0333C2.09928 15.499 1.75545 16.072 1.56371 16.702C1.39003 17.5773 1.33282 18.4718 1.39367 19.3621M13.8937 5.86206C13.8937 6.75208 13.6297 7.62217 13.1352 8.36219C12.6408 9.10221 11.938 9.67894 11.1157 10.0195C10.2934 10.3601 9.38865 10.4493 8.51574 10.2756C7.64282 10.102 6.84099 9.67341 6.21166 9.04407C5.58232 8.41473 5.15372 7.61291 4.98009 6.73999C4.80646 5.86708 4.8956 4.96229 5.23619 4.14002C5.57679 3.31775 6.15352 2.61495 6.89354 2.12049C7.63356 1.62602 8.50365 1.36206 9.39367 1.36206C9.98484 1.36127 10.5704 1.47714 11.1167 1.70301C11.663 1.92887 12.1594 2.26033 12.5774 2.67835C12.9954 3.09637 13.3269 3.59272 13.5527 4.13904C13.7786 4.68536 13.8945 5.27089 13.8937 5.86206Z" stroke="#8527E0" stroke-width="2" stroke-linecap="round" stroke-linejoin="round"/>
</svg>
