<svg width="20" height="23" viewBox="0 0 20 23" fill="none" xmlns="http://www.w3.org/2000/svg">
<path d="M18.3741 11.1669C18.5578 11.7936 18.3417 12.5283 17.7151 12.8956L10.5622 17.142C10.13 17.3797 9.58972 17.3797 9.16833 17.142L2.01546 12.8956C1.43199 12.5499 1.20508 11.88 1.33474 11.2749M18.3958 15.5212C18.547 16.1371 18.3201 16.8286 17.7259 17.1852L10.573 21.4316C10.1408 21.6693 9.60054 21.6693 9.17915 21.4316L2.02626 17.1852C1.47521 16.861 1.23751 16.2452 1.32395 15.6725M10.573 12.8417C10.1408 13.0794 9.60055 13.0794 9.17915 12.8417L2.03708 8.60607C1.07544 8.04421 1.07544 6.59641 2.03708 6.03455L9.18995 1.78814C9.62215 1.55044 10.1624 1.55044 10.5838 1.78814L17.7367 6.03455C18.6767 6.59641 18.6767 8.05501 17.7151 8.60607L10.573 12.8417Z" stroke="white" stroke-width="1.5" stroke-linecap="round" stroke-linejoin="round"/>
</svg>
